<svg id="wave" style="transform:rotate(0deg); transition: 0.3s" viewBox="0 0 1440 490" version="1.1" xmlns="http://www.w3.org/2000/svg"><defs><linearGradient id="sw-gradient-0" x1="0" x2="0" y1="1" y2="0"><stop stop-color="rgba(243, 106, 62, 1)" offset="0%"></stop><stop stop-color="rgba(255, 175.574, 0, 1)" offset="100%"></stop></linearGradient></defs><path style="transform:translate(0, 0px); opacity:1" fill="url(#sw-gradient-0)" d="M0,0L80,65.3C160,131,320,261,480,285.8C640,310,800,229,960,212.3C1120,196,1280,245,1440,261.3C1600,278,1760,261,1920,236.8C2080,212,2240,180,2400,179.7C2560,180,2720,212,2880,228.7C3040,245,3200,245,3360,269.5C3520,294,3680,343,3840,310.3C4000,278,4160,163,4320,130.7C4480,98,4640,147,4800,155.2C4960,163,5120,131,5280,122.5C5440,114,5600,131,5760,147C5920,163,6080,180,6240,171.5C6400,163,6560,131,6720,98C6880,65,7040,33,7200,49C7360,65,7520,131,7680,204.2C7840,278,8000,359,8160,383.8C8320,408,8480,376,8640,326.7C8800,278,8960,212,9120,228.7C9280,245,9440,343,9600,367.5C9760,392,9920,343,10080,269.5C10240,196,10400,98,10560,114.3C10720,131,10880,261,11040,294C11200,327,11360,261,11440,228.7L11520,196L11520,490L11440,490C11360,490,11200,490,11040,490C10880,490,10720,490,10560,490C10400,490,10240,490,10080,490C9920,490,9760,490,9600,490C9440,490,9280,490,9120,490C8960,490,8800,490,8640,490C8480,490,8320,490,8160,490C8000,490,7840,490,7680,490C7520,490,7360,490,7200,490C7040,490,6880,490,6720,490C6560,490,6400,490,6240,490C6080,490,5920,490,5760,490C5600,490,5440,490,5280,490C5120,490,4960,490,4800,490C4640,490,4480,490,4320,490C4160,490,4000,490,3840,490C3680,490,3520,490,3360,490C3200,490,3040,490,2880,490C2720,490,2560,490,2400,490C2240,490,2080,490,1920,490C1760,490,1600,490,1440,490C1280,490,1120,490,960,490C800,490,640,490,480,490C320,490,160,490,80,490L0,490Z"></path><defs><linearGradient id="sw-gradient-1" x1="0" x2="0" y1="1" y2="0"><stop stop-color="rgba(243, 106, 62, 1)" offset="0%"></stop><stop stop-color="rgba(255, 179, 11, 1)" offset="100%"></stop></linearGradient></defs><path style="transform:translate(0, 50px); opacity:0.9" fill="url(#sw-gradient-1)" d="M0,147L80,179.7C160,212,320,278,480,285.8C640,294,800,245,960,187.8C1120,131,1280,65,1440,32.7C1600,0,1760,0,1920,0C2080,0,2240,0,2400,49C2560,98,2720,196,2880,261.3C3040,327,3200,359,3360,351.2C3520,343,3680,294,3840,236.8C4000,180,4160,114,4320,122.5C4480,131,4640,212,4800,220.5C4960,229,5120,163,5280,114.3C5440,65,5600,33,5760,89.8C5920,147,6080,294,6240,294C6400,294,6560,147,6720,98C6880,49,7040,98,7200,163.3C7360,229,7520,310,7680,310.3C7840,310,8000,229,8160,220.5C8320,212,8480,278,8640,302.2C8800,327,8960,310,9120,294C9280,278,9440,261,9600,285.8C9760,310,9920,376,10080,375.7C10240,376,10400,310,10560,294C10720,278,10880,310,11040,318.5C11200,327,11360,310,11440,302.2L11520,294L11520,490L11440,490C11360,490,11200,490,11040,490C10880,490,10720,490,10560,490C10400,490,10240,490,10080,490C9920,490,9760,490,9600,490C9440,490,9280,490,9120,490C8960,490,8800,490,8640,490C8480,490,8320,490,8160,490C8000,490,7840,490,7680,490C7520,490,7360,490,7200,490C7040,490,6880,490,6720,490C6560,490,6400,490,6240,490C6080,490,5920,490,5760,490C5600,490,5440,490,5280,490C5120,490,4960,490,4800,490C4640,490,4480,490,4320,490C4160,490,4000,490,3840,490C3680,490,3520,490,3360,490C3200,490,3040,490,2880,490C2720,490,2560,490,2400,490C2240,490,2080,490,1920,490C1760,490,1600,490,1440,490C1280,490,1120,490,960,490C800,490,640,490,480,490C320,490,160,490,80,490L0,490Z"></path></svg>