<svg id="wave" style="transform:rotate(180deg); transition: 0.3s" viewBox="0 0 1440 490" version="1.1" xmlns="http://www.w3.org/2000/svg"><defs><linearGradient id="sw-gradient-0" x1="0" x2="0" y1="1" y2="0"><stop stop-color="rgba(243, 106, 62, 1)" offset="0%"></stop><stop stop-color="rgba(255, 175.574, 0, 1)" offset="100%"></stop></linearGradient></defs><path style="transform:translate(0, 0px); opacity:1" fill="url(#sw-gradient-0)" d="M0,0L80,8.2C160,16,320,33,480,89.8C640,147,800,245,960,245C1120,245,1280,147,1440,147C1600,147,1760,245,1920,261.3C2080,278,2240,212,2400,220.5C2560,229,2720,310,2880,302.2C3040,294,3200,196,3360,204.2C3520,212,3680,327,3840,334.8C4000,343,4160,245,4320,196C4480,147,4640,147,4800,163.3C4960,180,5120,212,5280,245C5440,278,5600,310,5760,334.8C5920,359,6080,376,6240,326.7C6400,278,6560,163,6720,147C6880,131,7040,212,7200,245C7360,278,7520,261,7680,253.2C7840,245,8000,245,8160,261.3C8320,278,8480,310,8640,285.8C8800,261,8960,180,9120,147C9280,114,9440,131,9600,114.3C9760,98,9920,49,10080,81.7C10240,114,10400,229,10560,261.3C10720,294,10880,245,11040,220.5C11200,196,11360,196,11440,196L11520,196L11520,490L11440,490C11360,490,11200,490,11040,490C10880,490,10720,490,10560,490C10400,490,10240,490,10080,490C9920,490,9760,490,9600,490C9440,490,9280,490,9120,490C8960,490,8800,490,8640,490C8480,490,8320,490,8160,490C8000,490,7840,490,7680,490C7520,490,7360,490,7200,490C7040,490,6880,490,6720,490C6560,490,6400,490,6240,490C6080,490,5920,490,5760,490C5600,490,5440,490,5280,490C5120,490,4960,490,4800,490C4640,490,4480,490,4320,490C4160,490,4000,490,3840,490C3680,490,3520,490,3360,490C3200,490,3040,490,2880,490C2720,490,2560,490,2400,490C2240,490,2080,490,1920,490C1760,490,1600,490,1440,490C1280,490,1120,490,960,490C800,490,640,490,480,490C320,490,160,490,80,490L0,490Z"></path></svg>